<svg width="89" height="88" viewBox="0 0 89 88" fill="none" xmlns="http://www.w3.org/2000/svg">
    <g clip-path="url(#clip0_1649_17848)">
        <path d="M87.125 34.375V78.375C87.125 79.1043 86.8353 79.8038 86.3195 80.3195C85.8038 80.8353 85.1043 81.125 84.375 81.125H51.375C50.6457 81.125 49.9462 81.4147 49.4305 81.9305C48.9147 82.4462 48.625 83.1457 48.625 83.875C48.625 84.6043 48.3353 85.3038 47.8195 85.8195C47.3038 86.3353 46.6043 86.625 45.875 86.625H43.125C42.3957 86.625 41.6962 86.3353 41.1805 85.8195C40.6647 85.3038 40.375 84.6043 40.375 83.875C40.375 83.1457 40.0853 82.4462 39.5695 81.9305C39.0538 81.4147 38.3543 81.125 37.625 81.125H4.625C3.89565 81.125 3.19618 80.8353 2.68046 80.3195C2.16473 79.8038 1.875 79.1043 1.875 78.375V34.375C1.875 33.6457 2.16473 32.9462 2.68046 32.4305C3.19618 31.9147 3.89565 31.625 4.625 31.625H84.375C85.1043 31.625 85.8038 31.9147 86.3195 32.4305C86.8353 32.9462 87.125 33.6457 87.125 34.375Z"
              fill="#6FC3E2"/>
        <path d="M40.375 79.75V83.875C40.375 83.1457 40.0853 82.4462 39.5695 81.9305C39.0538 81.4147 38.3543 81.125 37.625 81.125H4.625C3.89565 81.125 3.19618 80.8353 2.68046 80.3195C2.16473 79.8038 1.875 79.1043 1.875 78.375V74.25C1.875 74.9793 2.16473 75.6788 2.68046 76.1945C3.19618 76.7103 3.89565 77 4.625 77H37.625C38.3543 77 39.0538 77.2897 39.5695 77.8055C40.0853 78.3212 40.375 79.0207 40.375 79.75Z"
              fill="#62ACC7"/>
        <path d="M87.125 74.25V78.375C87.125 79.1043 86.8353 79.8038 86.3195 80.3195C85.8038 80.8353 85.1043 81.125 84.375 81.125H51.375C50.6457 81.125 49.9462 81.4147 49.4305 81.9305C48.9147 82.4462 48.625 83.1457 48.625 83.875V79.75C48.625 79.0207 48.9147 78.3212 49.4305 77.8055C49.9462 77.2897 50.6457 77 51.375 77H84.375C85.1043 77 85.8038 76.7103 86.3195 76.1945C86.8353 75.6788 87.125 74.9793 87.125 74.25Z"
              fill="#62ACC7"/>
        <path d="M45.875 88H43.125C42.031 88 40.9818 87.5654 40.2082 86.7918C39.4346 86.0182 39 84.969 39 83.875C39 83.5103 38.8551 83.1606 38.5973 82.9027C38.3394 82.6449 37.9897 82.5 37.625 82.5H4.625C3.53098 82.5 2.48177 82.0654 1.70818 81.2918C0.934597 80.5182 0.5 79.469 0.5 78.375L0.5 34.375C0.5 33.281 0.934597 32.2318 1.70818 31.4582C2.48177 30.6846 3.53098 30.25 4.625 30.25H84.375C85.469 30.25 86.5182 30.6846 87.2918 31.4582C88.0654 32.2318 88.5 33.281 88.5 34.375V78.375C88.5 79.469 88.0654 80.5182 87.2918 81.2918C86.5182 82.0654 85.469 82.5 84.375 82.5H72C71.6353 82.5 71.2856 82.3551 71.0277 82.0973C70.7699 81.8394 70.625 81.4897 70.625 81.125C70.625 80.7603 70.7699 80.4106 71.0277 80.1527C71.2856 79.8949 71.6353 79.75 72 79.75H84.375C84.7397 79.75 85.0894 79.6051 85.3473 79.3473C85.6051 79.0894 85.75 78.7397 85.75 78.375V34.375C85.75 34.0103 85.6051 33.6606 85.3473 33.4027C85.0894 33.1449 84.7397 33 84.375 33H4.625C4.26033 33 3.91059 33.1449 3.65273 33.4027C3.39487 33.6606 3.25 34.0103 3.25 34.375V78.375C3.25 78.7397 3.39487 79.0894 3.65273 79.3473C3.91059 79.6051 4.26033 79.75 4.625 79.75H37.625C38.719 79.75 39.7682 80.1846 40.5418 80.9582C41.3154 81.7318 41.75 82.781 41.75 83.875C41.75 84.2397 41.8949 84.5894 42.1527 84.8473C42.4106 85.1051 42.7603 85.25 43.125 85.25H45.875C46.2397 85.25 46.5894 85.1051 46.8473 84.8473C47.1051 84.5894 47.25 84.2397 47.25 83.875C47.25 82.781 47.6846 81.7318 48.4582 80.9582C49.2318 80.1846 50.281 79.75 51.375 79.75H66.5C66.8647 79.75 67.2144 79.8949 67.4723 80.1527C67.7301 80.4106 67.875 80.7603 67.875 81.125C67.875 81.4897 67.7301 81.8394 67.4723 82.0973C67.2144 82.3551 66.8647 82.5 66.5 82.5H51.375C51.0103 82.5 50.6606 82.6449 50.4027 82.9027C50.1449 83.1606 50 83.5103 50 83.875C50 84.969 49.5654 86.0182 48.7918 86.7918C48.0182 87.5654 46.969 88 45.875 88Z"
              fill="black"/>
        <path d="M8.75 67.375H44.5V74.25H8.75V67.375Z" fill="#EAD590"/>
        <path d="M44.5 75.625H8.75C8.38533 75.625 8.03559 75.4801 7.77773 75.2223C7.51987 74.9644 7.375 74.6147 7.375 74.25V67.375C7.375 67.0103 7.51987 66.6606 7.77773 66.4027C8.03559 66.1449 8.38533 66 8.75 66H44.5C44.8647 66 45.2144 66.1449 45.4723 66.4027C45.7301 66.6606 45.875 67.0103 45.875 67.375V74.25C45.875 74.6147 45.7301 74.9644 45.4723 75.2223C45.2144 75.4801 44.8647 75.625 44.5 75.625ZM10.125 72.875H43.125V68.75H10.125V72.875Z"
              fill="black"/>
        <path d="M44.5 30.25C44.5 75.3775 44.4828 74.2328 44.5 74.25C40.0978 69.8481 34.1274 67.3751 27.902 67.375H8.75V23.375H27.902C30.9846 23.3749 34.0369 23.982 36.8848 25.1616C39.7327 26.3412 42.3204 28.0703 44.5 30.25Z"
              fill="#F6EDC8"/>
        <path d="M27.902 63.25H8.75V67.375H27.902C34.1274 67.3751 40.0978 69.8481 44.5 74.25V70.125C40.0978 65.7231 34.1274 63.2501 27.902 63.25Z"
              fill="#F4DCB5"/>
        <path d="M43.5272 75.2228C41.4802 73.1641 39.0452 71.532 36.3631 70.4209C33.681 69.3099 30.8051 68.7419 27.902 68.75H8.75C8.38533 68.75 8.03559 68.6051 7.77773 68.3473C7.51987 68.0894 7.375 67.7397 7.375 67.375V23.375C7.375 23.0103 7.51987 22.6606 7.77773 22.4027C8.03559 22.1449 8.38533 22 8.75 22H23.875C24.2397 22 24.5894 22.1449 24.8473 22.4027C25.1051 22.6606 25.25 23.0103 25.25 23.375C25.25 23.7397 25.1051 24.0894 24.8473 24.3473C24.5894 24.6051 24.2397 24.75 23.875 24.75H10.125V66H27.902C33.4155 65.9838 38.7754 67.8162 43.125 71.2044V30.8292C39.365 27.2548 34.4668 25.1179 29.2891 24.793C28.9244 24.7702 28.5837 24.6035 28.342 24.3295C28.1002 24.0555 27.9772 23.6967 28 23.332C28.0228 22.9674 28.1895 22.6267 28.4635 22.3849C28.7375 22.1432 29.0963 22.0202 29.4609 22.043C35.5006 22.4217 41.1943 24.9923 45.4728 29.272C45.6011 29.4004 45.7027 29.553 45.7717 29.7208C45.8407 29.8887 45.8758 30.0685 45.875 30.25V74.25C45.8752 74.5221 45.7947 74.7882 45.6436 75.0145C45.4925 75.2408 45.2777 75.4172 45.0263 75.5214C44.775 75.6255 44.4983 75.6527 44.2315 75.5996C43.9646 75.5465 43.7195 75.4153 43.5272 75.2228Z"
              fill="black"/>
        <path d="M80.25 74.25H44.5V67.375H80.25V74.25Z" fill="#EAD590"/>
        <path d="M80.25 75.625H44.5C44.1353 75.625 43.7856 75.4801 43.5277 75.2223C43.2699 74.9644 43.125 74.6147 43.125 74.25V67.375C43.125 67.0103 43.2699 66.6606 43.5277 66.4027C43.7856 66.1449 44.1353 66 44.5 66H80.25C80.6147 66 80.9644 66.1449 81.2223 66.4027C81.4801 66.6606 81.625 67.0103 81.625 67.375V74.25C81.625 74.6147 81.4801 74.9644 81.2223 75.2223C80.9644 75.4801 80.6147 75.625 80.25 75.625ZM45.875 72.875H78.875V68.75H45.875V72.875Z"
              fill="black"/>
        <path d="M44.5 30.25C44.5 75.3775 44.5172 74.2328 44.5 74.25C48.9022 69.8481 54.8726 67.3751 61.098 67.375H80.25V23.375H61.098C58.0154 23.3749 54.9631 23.982 52.1152 25.1616C49.2673 26.3412 46.6796 28.0703 44.5 30.25Z"
              fill="#F6EDC8"/>
        <path d="M44.5 70.125V74.25C44.6289 74.25 50.5156 67.375 61.098 67.375H80.25V63.25H61.098C54.8726 63.2501 48.9022 65.7231 44.5 70.125Z"
              fill="#F4DCB5"/>
        <path d="M43.125 74.2501V30.2501C43.1249 30.0695 43.1603 29.8906 43.2293 29.7237C43.2983 29.5568 43.3995 29.4051 43.5272 29.2773C45.8294 26.9629 48.5678 25.1281 51.5838 23.879C54.5998 22.6299 57.8335 21.9913 61.098 22.0001H80.25C80.6147 22.0001 80.9644 22.145 81.2223 22.4028C81.4801 22.6607 81.625 23.0104 81.625 23.3751V67.3751C81.625 67.7398 81.4801 68.0895 81.2223 68.3474C80.9644 68.6052 80.6147 68.7501 80.25 68.7501H61.098C58.1949 68.742 55.319 69.31 52.6369 70.421C49.9548 71.5321 47.5198 73.1642 45.4728 75.2229C45.2805 75.4154 45.0354 75.5465 44.7685 75.5997C44.5017 75.6528 44.225 75.6256 43.9737 75.5214C43.7223 75.4173 43.5075 75.2409 43.3564 75.0146C43.2053 74.7882 43.1248 74.5222 43.125 74.2501ZM45.875 30.8293V71.2045C50.2246 67.8163 55.5845 65.9839 61.098 66.0001H78.875V24.7501H61.098C55.429 24.7345 49.9738 26.913 45.875 30.8293Z"
              fill="black"/>
        <path d="M29.375 34.5281C28.4373 34.4226 27.4947 34.3653 26.5511 34.3563L15.625 34.3752C15.2603 34.3752 14.9106 34.2303 14.6527 33.9725C14.3949 33.7146 14.25 33.3649 14.25 33.0002C14.25 32.6355 14.3949 32.2858 14.6527 32.0279C14.9106 31.77 15.2603 31.6252 15.625 31.6252C27.6047 31.608 27.5669 31.5496 29.5469 31.7867C29.8968 31.826 30.2183 31.998 30.4452 32.2673C30.672 32.5365 30.7869 32.8826 30.7662 33.2341C30.7455 33.5856 30.5907 33.9157 30.3338 34.1565C30.0769 34.3972 29.7374 34.5303 29.3853 34.5281H29.375Z"
              fill="black"/>
        <path d="M29.375 42.7782C28.4372 42.6734 27.4947 42.616 26.5511 42.6063L15.625 42.6252C15.2603 42.6252 14.9106 42.4803 14.6527 42.2225C14.3949 41.9646 14.25 41.6149 14.25 41.2502C14.25 40.8855 14.3949 40.5358 14.6527 40.2779C14.9106 40.0201 15.2603 39.8752 15.625 39.8752C27.4122 39.8597 27.5703 39.8013 29.5469 40.0368C29.8968 40.076 30.2183 40.248 30.4452 40.5173C30.672 40.7865 30.7869 41.1326 30.7662 41.4841C30.7455 41.8356 30.5907 42.1657 30.3338 42.4065C30.0769 42.6473 29.7374 42.7803 29.3853 42.7782H29.375Z"
              fill="black"/>
        <path d="M30.75 51.2343C30.4217 51.2343 28.9745 50.8596 26.5803 50.8596L15.625 50.8751C15.2603 50.8751 14.9106 50.7302 14.6527 50.4724C14.3949 50.2145 14.25 49.8648 14.25 49.5001C14.25 49.1354 14.3949 48.7857 14.6527 48.5278C14.9106 48.27 15.2603 48.1251 15.625 48.1251L26.5494 48.1096C28.0401 48.113 29.5278 48.2452 30.9958 48.5049C31.3354 48.5644 31.6404 48.7493 31.8501 49.023C32.0598 49.2967 32.1591 49.6392 32.1281 49.9827C32.0972 50.3261 31.9384 50.6454 31.6831 50.8772C31.4279 51.109 31.0948 51.2365 30.75 51.2343Z"
              fill="black"/>
        <path d="M36.977 61.7135C33.7777 60.0071 30.208 59.1129 26.582 59.1096L15.625 59.1251C15.2603 59.1251 14.9106 58.9802 14.6527 58.7224C14.3949 58.4645 14.25 58.1148 14.25 57.7501C14.25 57.3854 14.3949 57.0357 14.6527 56.7778C14.9106 56.52 15.2603 56.3751 15.625 56.3751L26.5494 56.3596C30.6384 56.3561 34.6654 57.3596 38.2747 59.2815C38.434 59.3666 38.5751 59.4822 38.6897 59.6218C38.8044 59.7614 38.8904 59.9222 38.9429 60.0951C38.9954 60.2679 39.0134 60.4494 38.9958 60.6292C38.9781 60.809 38.9252 60.9836 38.8402 61.1429C38.7551 61.3023 38.6394 61.4433 38.4998 61.558C38.3602 61.6726 38.1994 61.7586 38.0266 61.8112C37.8537 61.8637 37.6722 61.8816 37.4924 61.864C37.3127 61.8463 37.1381 61.7935 36.9788 61.7084L36.977 61.7135Z"
              fill="black"/>
        <path d="M59.6248 34.528C59.2727 34.5302 58.9332 34.3971 58.6762 34.1564C58.4193 33.9156 58.2646 33.5855 58.2438 33.234C58.2231 32.8825 58.338 32.5364 58.5649 32.2672C58.7918 31.9979 59.1133 31.8259 59.4632 31.7866C61.4466 31.5477 61.8351 31.6148 73.3851 31.6251C73.7497 31.6251 74.0995 31.7699 74.3573 32.0278C74.6152 32.2857 74.7601 32.6354 74.7601 33.0001C74.7601 33.3648 74.6152 33.7145 74.3573 33.9724C74.0995 34.2302 73.7497 34.3751 73.3851 34.3751L62.4573 34.3596C61.5108 34.3666 60.5654 34.4228 59.6248 34.528Z"
              fill="black"/>
        <path d="M59.6248 42.7781C59.2727 42.7802 58.9332 42.6472 58.6762 42.4064C58.4193 42.1656 58.2646 41.8355 58.2438 41.484C58.2231 41.1325 58.338 40.7864 58.5649 40.5172C58.7918 40.2479 59.1133 40.0759 59.4632 40.0367C61.4483 39.7995 61.6168 39.8648 73.3851 39.8751C73.7497 39.8751 74.0995 40.02 74.3573 40.2778C74.6152 40.5357 74.7601 40.8854 74.7601 41.2501C74.7601 41.6148 74.6152 41.9645 74.3573 42.2224C74.0995 42.4802 73.7497 42.6251 73.3851 42.6251L62.4573 42.6096C61.5108 42.6175 60.5654 42.6737 59.6248 42.7781Z"
              fill="black"/>
        <path d="M58.2503 51.2343C57.9058 51.2356 57.5733 51.1075 57.3187 50.8754C57.0642 50.6433 56.906 50.3241 56.8755 49.9809C56.845 49.6378 56.9445 49.2957 57.1542 49.0224C57.3639 48.749 57.6686 48.5644 58.0079 48.5049C59.4752 48.2403 60.9633 48.1079 62.4543 48.1096L73.3753 48.1251C73.7399 48.1251 74.0897 48.27 74.3475 48.5278C74.6054 48.7857 74.7503 49.1354 74.7503 49.5001C74.7503 49.8648 74.6054 50.2145 74.3475 50.4724C74.0897 50.7302 73.7399 50.8751 73.3753 50.8751L62.4492 50.8596C59.957 50.8614 58.6267 51.2343 58.2503 51.2343Z"
              fill="black"/>
        <path d="M50.1615 61.148C50.0764 60.9887 50.0234 60.8141 50.0057 60.6343C49.9881 60.4545 50.006 60.273 50.0585 60.1001C50.111 59.9273 50.1971 59.7665 50.3118 59.6269C50.4265 59.4873 50.5676 59.3717 50.727 59.2866C54.3364 57.3651 58.3633 56.3616 62.4523 56.3648L73.375 56.3751C73.7396 56.3751 74.0894 56.5199 74.3472 56.7778C74.6051 57.0357 74.75 57.3854 74.75 57.7501C74.75 58.1147 74.6051 58.4645 74.3472 58.7223C74.0894 58.9802 73.7396 59.1251 73.375 59.1251L62.4197 59.1096C58.7937 59.1129 55.224 60.0071 52.0247 61.7135C51.8652 61.7989 51.6905 61.8521 51.5106 61.8699C51.3306 61.8877 51.1488 61.8699 50.9758 61.8173C50.8027 61.7648 50.6417 61.6787 50.502 61.5638C50.3622 61.449 50.2466 61.3077 50.1615 61.148Z"
              fill="black"/>
        <path d="M61 17.8752C61.0003 15.6884 60.5658 13.5234 59.7219 11.5061C58.878 9.4887 57.6416 7.65919 56.0844 6.12391C54.5272 4.58862 52.6803 3.37819 50.6512 2.56297C48.6221 1.74775 46.4511 1.34401 44.2646 1.37522C35.2566 1.50068 27.9588 8.93771 28.0001 17.9526C28.0143 22.0956 29.5919 26.0805 32.4172 29.1107C35.1246 32.0143 36.9178 35.6504 37.5735 39.5658L37.6251 39.8752H51.375L51.4266 39.5693C52.1086 35.6247 53.9248 31.9642 56.6533 29.0351C59.4537 25.9939 61.0057 22.0093 61 17.8752Z"
              fill="#E9A648"/>
        <path d="M52.4687 35.75C51.9587 37.0822 51.5923 38.4651 51.3755 39.875H37.6255C37.4139 38.4649 37.0503 37.0819 36.541 35.75H52.4687Z"
              fill="#D08840"/>
        <path d="M51.375 41.2501H37.625C37.2996 41.2501 36.9848 41.1347 36.7365 40.9245C36.4883 40.7143 36.3225 40.4229 36.2689 40.102L36.2173 39.7943C35.607 36.1431 33.933 32.7531 31.4048 30.049C28.3461 26.7654 26.6391 22.4485 26.625 17.9611C26.5786 8.19339 34.4831 0.137614 44.2456 0.00011405C47.7377 -0.0497542 51.1679 0.924448 54.1124 2.80238C57.057 4.6803 59.387 7.37968 60.8145 10.5671C62.242 13.7544 62.7045 17.2902 62.1449 20.7375C61.5853 24.1848 60.028 27.3927 57.6656 29.9648C55.1167 32.6974 53.4198 36.1139 52.7826 39.7961L52.7311 40.102C52.6774 40.4229 52.5117 40.7143 52.2634 40.9245C52.0151 41.1347 51.7003 41.2501 51.375 41.2501ZM38.7731 38.5001H50.2286C51.0611 34.61 52.9314 31.018 55.6409 28.1051C57.6401 25.9286 58.9579 23.214 59.4314 20.2968C59.9049 17.3796 59.5134 14.3876 58.3052 11.6904C57.097 8.99329 55.1252 6.70918 52.6332 5.12031C50.1413 3.53145 47.2385 2.70745 44.2834 2.75011C36.0248 2.86527 29.3303 9.68183 29.375 17.9456C29.3882 21.7434 30.8344 25.3962 33.4243 28.1739C36.12 31.0606 37.9703 34.6328 38.7731 38.5001Z"
              fill="black"/>
        <path d="M37.625 39.875H51.375V45.375C51.375 46.1043 51.0853 46.8038 50.5695 47.3195C50.0538 47.8353 49.3543 48.125 48.625 48.125H40.375C39.6457 48.125 38.9462 47.8353 38.4305 47.3195C37.9147 46.8038 37.625 46.1043 37.625 45.375V39.875Z"
              fill="#F6F6F6"/>
        <path d="M48.625 44H40.375C39.6457 44 38.9462 43.7103 38.4305 43.1945C37.9147 42.6788 37.625 41.9793 37.625 41.25V45.375C37.625 46.1043 37.9147 46.8038 38.4305 47.3195C38.9462 47.8353 39.6457 48.125 40.375 48.125H48.625C49.3543 48.125 50.0538 47.8353 50.5695 47.3195C51.0853 46.8038 51.375 46.1043 51.375 45.375V41.25C51.375 41.9793 51.0853 42.6788 50.5695 43.1945C50.0538 43.7103 49.3543 44 48.625 44Z"
              fill="#DCDCDC"/>
        <path d="M48.625 49.5H40.375C39.281 49.5 38.2318 49.0654 37.4582 48.2918C36.6846 47.5182 36.25 46.469 36.25 45.375V39.875C36.25 39.5103 36.3949 39.1606 36.6527 38.9027C36.9106 38.6449 37.2603 38.5 37.625 38.5H51.375C51.7397 38.5 52.0894 38.6449 52.3473 38.9027C52.6051 39.1606 52.75 39.5103 52.75 39.875V45.375C52.75 46.469 52.3154 47.5182 51.5418 48.2918C50.7682 49.0654 49.719 49.5 48.625 49.5ZM39 41.25V45.375C39 45.7397 39.1449 46.0894 39.4027 46.3473C39.6606 46.6051 40.0103 46.75 40.375 46.75H48.625C48.9897 46.75 49.3394 46.6051 49.5973 46.3473C49.8551 46.0894 50 45.7397 50 45.375V41.25H39Z"
              fill="black"/>
        <path d="M44.5 53.625C43.406 53.625 42.3568 53.1904 41.5832 52.4168C40.8096 51.6432 40.375 50.594 40.375 49.5V48.125H48.625V49.5C48.625 50.594 48.1904 51.6432 47.4168 52.4168C46.6432 53.1904 45.594 53.625 44.5 53.625Z"
              fill="#F6F6F6"/>
        <path d="M44.5 55C43.0413 55 41.6424 54.4205 40.6109 53.3891C39.5795 52.3576 39 50.9587 39 49.5V48.125C39 47.7603 39.1449 47.4106 39.4027 47.1527C39.6606 46.8949 40.0103 46.75 40.375 46.75H48.625C48.9897 46.75 49.3394 46.8949 49.5973 47.1527C49.8551 47.4106 50 47.7603 50 48.125V49.5C50 50.9587 49.4205 52.3576 48.3891 53.3891C47.3576 54.4205 45.9587 55 44.5 55ZM41.75 49.5C41.75 50.2293 42.0397 50.9288 42.5555 51.4445C43.0712 51.9603 43.7707 52.25 44.5 52.25C45.2293 52.25 45.9288 51.9603 46.4445 51.4445C46.9603 50.9288 47.25 50.2293 47.25 49.5H41.75Z"
              fill="black"/>
        <path d="M44.4999 41.25C44.1352 41.25 43.7855 41.1052 43.5276 40.8473C43.2698 40.5894 43.1249 40.2397 43.1249 39.875V36.6524C43.1312 34.3662 42.6839 32.1015 41.8088 29.9893C40.9338 27.8772 39.6484 25.9597 38.0271 24.3478C37.7691 24.0898 37.6241 23.7399 37.6241 23.375C37.6241 23.0102 37.7691 22.6602 38.0271 22.4022C38.2851 22.1442 38.635 21.9993 38.9999 21.9993C39.3648 21.9993 39.7147 22.1442 39.9727 22.4022C41.8495 24.2695 43.3375 26.4904 44.3506 28.9364C45.3637 31.3823 45.8818 34.0049 45.8749 36.6524V39.875C45.8749 40.2397 45.73 40.5894 45.4722 40.8473C45.2143 41.1052 44.8646 41.25 44.4999 41.25Z"
              fill="black"/>
        <path d="M44.5001 41.25C44.1354 41.25 43.7857 41.1052 43.5278 40.8473C43.2699 40.5894 43.1251 40.2397 43.1251 39.875V36.6524C43.1182 34.0049 43.6363 31.3823 44.6494 28.9364C45.6625 26.4904 47.1505 24.2695 49.0273 22.4022C49.155 22.2745 49.3067 22.1731 49.4736 22.104C49.6405 22.0349 49.8194 21.9993 50.0001 21.9993C50.1807 21.9993 50.3596 22.0349 50.5265 22.104C50.6935 22.1731 50.8451 22.2745 50.9729 22.4022C51.1006 22.53 51.202 22.6816 51.2711 22.8485C51.3402 23.0155 51.3758 23.1944 51.3758 23.375C51.3758 23.5557 51.3402 23.7346 51.2711 23.9015C51.202 24.0684 51.1006 24.2201 50.9729 24.3478C49.3516 25.9597 48.0662 27.8772 47.1912 29.9893C46.3161 32.1015 45.8688 34.3662 45.8751 36.6524V39.875C45.8751 40.2397 45.7302 40.5894 45.4723 40.8473C45.2145 41.1052 44.8647 41.25 44.5001 41.25Z"
              fill="black"/>
    </g>
    <defs>
        <clipPath id="clip0_1649_17848">
            <rect width="88" height="88" fill="white" transform="translate(0.5)"/>
        </clipPath>
    </defs>
</svg>
