<svg width="89" height="88" viewBox="0 0 89 88" fill="none" xmlns="http://www.w3.org/2000/svg">
    <g clip-path="url(#clip0_1649_17813)">
        <path d="M44.5 6.11133H54.1444V13.0003H44.5V6.11133Z" fill="#FF8086"/>
        <path d="M44.5 6.11133H48.6333V13.0003H44.5V6.11133Z" fill="#E5646E"/>
        <path d="M81.6998 30.9111H7.30023L1.78906 43.3111H87.2109L81.6998 30.9111Z" fill="#FF8086"/>
        <path d="M3.62606 39.1777L1.78906 43.311H87.2109L85.3739 39.1777H3.62606Z" fill="#E5646E"/>
        <path d="M84.4548 81.8886H4.54395V43.3109H22.455L44.4994 21.2666L66.5439 43.3109H84.4548V81.8886Z"
              fill="#FFC269"/>
        <path d="M36.2334 63.9775H52.7667V79.133H36.2334V63.9775Z" fill="#C38C66"/>
        <path d="M44.5001 54.3331C49.0656 54.3331 52.7667 50.632 52.7667 46.0665C52.7667 41.5009 49.0656 37.7998 44.5001 37.7998C39.9345 37.7998 36.2334 41.5009 36.2334 46.0665C36.2334 50.632 39.9345 54.3331 44.5001 54.3331Z"
              fill="#FFF0AF"/>
        <path d="M44.4997 50.1998C46.7824 50.1998 48.633 48.3493 48.633 46.0666C48.633 43.7839 46.7824 41.9333 44.4997 41.9333C42.217 41.9333 40.3665 43.7839 40.3665 46.0666C40.3665 48.3493 42.217 50.1998 44.4997 50.1998Z"
              fill="white"/>
        <path d="M33.4775 76.3774H55.5219V81.8886H33.4775V76.3774Z" fill="#C8C5C9"/>
        <path d="M66.5441 43.3109L44.4994 21.2666L22.4549 43.3109H4.54395V81.8886H8.6772V50.1999C8.6772 48.6781 9.91091 47.4444 11.4327 47.4444H22.0886C23.5607 47.4444 24.9716 46.8553 26.0068 45.8088L44.4994 27.1121L62.9918 45.8086C64.027 46.8553 65.4379 47.4442 66.91 47.4442H84.4548V43.3109H66.5441Z"
              fill="#FFA95F"/>
        <path d="M59.655 50.2H78.9439V58.4666H59.655V50.2Z" fill="#EDF4FF"/>
        <path d="M63.7895 51.5777V50.2H59.6562V58.4666H78.9451V54.3334H66.5452C65.0232 54.3332 63.7895 53.0995 63.7895 51.5777Z"
              fill="#DBEAFF"/>
        <path d="M59.655 63.9775H78.9439V72.2442H59.655V63.9775Z" fill="#EDF4FF"/>
        <path d="M63.7895 65.3553V63.9775H59.6562V72.2442H78.9451V68.111H66.5452C65.0232 68.1108 63.7895 66.8771 63.7895 65.3553Z"
              fill="#DBEAFF"/>
        <path d="M10.0557 50.2H29.3445V58.4666H10.0557V50.2Z" fill="#EDF4FF"/>
        <path d="M14.1889 51.5777V50.2H10.0557V58.4666H29.3445V54.3334H16.9444C15.4226 54.3332 14.1889 53.0995 14.1889 51.5777Z"
              fill="#DBEAFF"/>
        <path d="M10.0557 63.9775H29.3445V69.8383H10.0557V63.9775Z" fill="#EDF4FF"/>
        <path d="M14.1889 65.3553V63.9775H10.0557V72.2442H29.3445V68.111H16.9444C15.4226 68.1108 14.1889 66.8771 14.1889 65.3553Z"
              fill="#DBEAFF"/>
        <path d="M87.211 80.5995H85.7445V44.6002H87.211C87.6474 44.6002 88.054 44.3795 88.2919 44.0135C88.5298 43.6476 88.5662 43.1863 88.389 42.7876L82.878 30.3876C82.6711 29.9222 82.2094 29.6221 81.7 29.6221H54.6783L45.7891 20.7327V14.2891H54.1445C54.8564 14.2891 55.4335 13.712 55.4335 13.0001V6.11133C55.4335 5.39942 54.8564 4.82227 54.1445 4.82227H44.5C43.7881 4.82227 43.211 5.39942 43.211 6.11133V20.7329L34.3216 29.6221H7.3001C6.79066 29.6221 6.32901 29.9222 6.12207 30.3876L0.611069 42.7876C0.433866 43.1863 0.470475 43.6476 0.708178 44.0135C0.945881 44.3795 1.35271 44.6002 1.7891 44.6002H3.25554V80.5997H1.7891C1.07719 80.5997 0.500038 81.1769 0.500038 81.8888C0.500038 82.6007 1.07719 83.1778 1.7891 83.1778H87.211C87.9229 83.1778 88.5 82.6007 88.5 81.8888C88.5 81.1769 87.9229 80.5995 87.211 80.5995ZM52.8554 11.711H45.7891V7.40039H52.8554V11.711ZM8.13782 32.2002H31.7435L21.9217 42.022H3.77271L8.13782 32.2002ZM5.83366 44.6002H22.4555C22.7974 44.6002 23.1253 44.4644 23.367 44.2225L44.5 23.0897L65.6329 44.2225C65.8746 44.4644 66.2025 44.6002 66.5444 44.6002H76.1888C76.9007 44.6002 77.4779 44.023 77.4779 43.3111C77.4779 42.5992 76.9007 42.022 76.1888 42.022H67.0784L57.2566 32.2002H80.8623L85.2275 42.022H81.7C80.9881 42.022 80.4109 42.5992 80.4109 43.3111C80.4109 44.023 80.9881 44.6002 81.7 44.6002H83.1664V80.5997H56.8113V76.3778C56.8113 75.6659 56.2341 75.0887 55.5222 75.0887H54.0558V63.9779C54.0558 63.2659 53.4786 62.6888 52.7667 62.6888H36.2335C35.5216 62.6888 34.9445 63.2659 34.9445 63.9779V75.0887H33.478C32.7661 75.0887 32.189 75.6659 32.189 76.3778V80.5997H5.83366V44.6002ZM51.4776 65.2668V75.0885H45.7891V65.2668H51.4776ZM43.211 75.0885H37.5224V65.2668H43.211V75.0885ZM54.2331 77.6667V80.5995H34.7669V77.6667H54.2331Z"
              fill="black"/>
        <path d="M44.5001 55.6222C49.7691 55.6222 54.0558 51.3356 54.0558 46.0665C54.0558 40.7973 49.7692 36.5107 44.5001 36.5107C39.2309 36.5107 34.9443 40.7975 34.9443 46.0665C34.9443 51.3355 39.2311 55.6222 44.5001 55.6222ZM44.5001 39.0889C48.3475 39.0889 51.4777 42.2191 51.4777 46.0665C51.4777 49.9139 48.3475 53.0441 44.5001 53.0441C40.6526 53.0441 37.5225 49.9141 37.5225 46.0665C37.5225 42.2189 40.6526 39.0889 44.5001 39.0889Z"
              fill="black"/>
        <path d="M44.5 50.1114C45.2119 50.1114 45.7891 49.5343 45.7891 48.8223V46.8635L47.832 45.842C48.4688 45.5237 48.7269 44.7494 48.4084 44.1126C48.0901 43.4758 47.3158 43.2175 46.679 43.5362L43.9235 44.9139C43.4868 45.1322 43.2109 45.5785 43.2109 46.0668V48.8223C43.2109 49.5343 43.7881 50.1114 44.5 50.1114Z"
              fill="black"/>
        <path d="M29.3455 62.6885H10.0566C9.34473 62.6885 8.76758 63.2656 8.76758 63.9775V72.2442C8.76758 72.9561 9.34473 73.5333 10.0566 73.5333H12.8127C13.5246 73.5333 14.1017 72.9561 14.1017 72.2442C14.1017 71.5323 13.5246 70.9551 12.8127 70.9551H11.3457V65.2666H18.412V70.9551H18.3235C17.6116 70.9551 17.0344 71.5323 17.0344 72.2442C17.0344 72.9561 17.6116 73.5333 18.3235 73.5333H29.3455C30.0574 73.5333 30.6345 72.9561 30.6345 72.2442V63.9775C30.6345 63.2656 30.0574 62.6885 29.3455 62.6885ZM28.0564 70.9551H20.9901V65.2666H28.0564V70.9551Z"
              fill="black"/>
        <path d="M29.3455 48.9109H10.0566C9.34473 48.9109 8.76758 49.488 8.76758 50.2V58.4666C8.76758 59.1785 9.34473 59.7557 10.0566 59.7557H29.3455C30.0574 59.7557 30.6345 59.1785 30.6345 58.4666V50.2C30.6345 49.488 30.0574 48.9109 29.3455 48.9109ZM11.3457 51.489H18.412V57.1776H11.3457V51.489ZM28.0564 57.1774H20.9901V51.4888H28.0564V57.1774Z"
              fill="black"/>
        <path d="M59.6552 73.5333H78.944C79.6559 73.5333 80.2331 72.9561 80.2331 72.2442V63.9775C80.2331 63.2656 79.6559 62.6885 78.944 62.6885H59.6552C58.9432 62.6885 58.3661 63.2656 58.3661 63.9775V72.2442C58.3661 72.9561 58.9432 73.5333 59.6552 73.5333ZM77.6549 70.9551H70.5886V65.2666H77.6549V70.9551ZM60.9442 65.2666H68.0105V70.9551H60.9442V65.2666Z"
              fill="black"/>
        <path d="M59.6552 59.7554H78.944C79.6559 59.7554 80.2331 59.1783 80.2331 58.4664V50.1997C80.2331 49.4878 79.6559 48.9106 78.944 48.9106H59.6552C58.9432 48.9106 58.3661 49.4878 58.3661 50.1997V58.4664C58.3661 59.1785 58.9432 59.7554 59.6552 59.7554ZM77.6549 57.1773H70.5886V51.4888H77.6549V57.1773ZM60.9442 51.4889H68.0105V57.1775H60.9442V51.4889Z"
              fill="black"/>
    </g>
    <defs>
        <clipPath id="clip0_1649_17813">
            <rect width="88" height="88" fill="white" transform="translate(0.5)"/>
        </clipPath>
    </defs>
</svg>
