<svg width="89" height="88" viewBox="0 0 89 88" fill="none" xmlns="http://www.w3.org/2000/svg">
    <mask id="mask0_1649_17888" style="mask-type:luminance" maskUnits="userSpaceOnUse" x="0" y="0" width="89"
          height="88">
        <path d="M0.5 7.62939e-06H88.5V88H0.5V7.62939e-06Z" fill="white"/>
    </mask>
    <g mask="url(#mask0_1649_17888)">
        <path d="M78.2221 47.5503H15.5733C12.9246 47.5503 10.7773 45.4027 10.7773 42.7538C10.7773 40.1047 12.9246 37.9573 15.5733 37.9573H78.2221C76.6814 40.9403 76.6814 44.5671 78.2221 47.5503Z"
              fill="#F7F7F7"/>
        <path d="M78.2225 37.957H15.5737H73.0663C71.5256 40.9403 71.5256 44.567 73.0663 47.55H78.2225C76.6818 44.567 76.6818 40.9403 78.2225 37.957Z"
              fill="#EFEFEF"/>
        <path d="M16.2726 51.5452C13.9117 51.5452 11.6944 50.6189 10.0289 48.9373C8.36395 47.2559 7.45954 45.029 7.48223 42.6673C7.52898 37.8672 11.5156 33.9622 16.3694 33.9622H78.9214C80.3536 33.9622 81.5189 35.1275 81.5189 36.5597C81.5189 37.9921 80.3536 39.1574 78.9214 39.1574H16.2726C14.2899 39.1574 12.6768 40.7707 12.6768 42.7538C12.6768 44.7367 14.2899 46.3499 16.2726 46.3499H78.9214C80.3536 46.3499 81.5189 47.5152 81.5189 48.9476C81.5189 50.3799 80.3536 51.5452 78.9214 51.5452H16.2726Z"
              fill="#FF815C"/>
        <path d="M84.0773 82.7161H11.1161C8.4673 82.7161 6.32007 80.5685 6.32007 77.9195C6.32007 75.2704 8.4673 73.123 11.1161 73.123H84.0773C82.5367 76.1061 82.5367 79.7328 84.0773 82.7161Z"
              fill="#F7F7F7"/>
        <path d="M84.0776 73.123H78.9214C77.3807 76.1063 77.3807 79.733 78.9214 82.7161H84.0776C82.5369 79.733 82.5369 76.1063 84.0776 73.123Z"
              fill="#EFEFEF"/>
        <path d="M11.1164 86.7109C8.75548 86.7109 6.53812 85.7847 4.87265 84.1031C3.2077 82.4216 2.30329 80.1948 2.32598 77.8331C2.37273 73.033 6.35937 69.128 11.2131 69.128H84.0776C85.5099 69.128 86.6752 70.2933 86.6752 71.7255C86.6752 73.1579 85.5099 74.3232 84.0776 74.3232H11.1164C9.1336 74.3232 7.52056 75.9364 7.52056 77.9195C7.52056 79.9025 9.1336 81.5157 11.1164 81.5157H84.0776C85.5099 81.5157 86.6752 82.681 86.6752 84.1134C86.6752 85.5456 85.5099 86.7109 84.0776 86.7109H11.1164Z"
              fill="#FFE66B"/>
        <path d="M4.92273 55.54H77.884C80.533 55.54 82.6802 57.6876 82.6802 60.3365C82.6802 62.9857 80.533 65.1331 77.884 65.1331H4.92273C6.46342 62.15 6.46342 58.5233 4.92273 55.54Z"
              fill="#F7F7F7"/>
        <path d="M4.92318 69.1279C3.49095 69.1279 2.32581 67.9626 2.32581 66.5304C2.32581 65.098 3.49095 63.9327 4.92318 63.9327H77.8845C79.8672 63.9327 81.4804 62.3194 81.4804 60.3365C81.4804 58.3534 79.8672 56.7402 77.8845 56.7402H4.92318C3.49095 56.7402 2.32581 55.5749 2.32581 54.1425C2.32581 52.7103 3.49095 51.5451 4.92318 51.5451H77.8846C80.2455 51.5451 82.4629 52.4712 84.1282 54.153C85.7933 55.8344 86.6973 58.0611 86.6748 60.423C86.6281 65.2229 82.6414 69.1279 77.7875 69.1279H4.92318Z"
              fill="#C9F0FF"/>
        <path d="M84.1281 54.153C82.4628 52.4714 80.2455 51.5451 77.8846 51.5451H72.7283C75.0892 51.5451 77.3066 52.4714 78.9719 54.153C80.637 55.8346 81.5411 58.0612 81.5184 60.423C81.4718 65.2229 77.4851 69.1279 72.6312 69.1279H77.7875C82.6414 69.1279 86.628 65.2229 86.6746 60.423C86.6973 58.0612 85.7932 55.8346 84.1281 54.153Z"
              fill="#B5EAFF"/>
        <path d="M68.5629 33.9622H20.4379L25.5941 16.6012H63.4066L68.5629 33.9622Z" fill="#288A9A"/>
        <path d="M40.0557 1.86305L5.85101 10.8473C4.01727 11.3289 4.01727 13.9319 5.85101 14.4135L40.0557 23.3978C42.969 24.163 46.0306 24.163 48.9438 23.3978L83.1485 14.4135C84.9823 13.9319 84.9823 11.3289 83.1485 10.8473L48.9438 1.86305C46.0306 1.09769 42.969 1.09769 40.0557 1.86305Z"
              fill="#3498AC"/>
        <path d="M83.1484 10.8473L48.9438 1.86309C46.0305 1.09773 42.9689 1.09773 40.0556 1.86309L34.8583 3.22812C37.254 2.8445 39.71 2.96223 42.0688 3.58184L76.2734 12.5661C78.107 13.0477 78.107 15.6506 76.2734 16.1323L83.1484 14.4136C84.982 13.9318 84.982 11.3289 83.1484 10.8473Z"
              fill="#288A9A"/>
        <path d="M59.8773 41.4219H52.4585C52.4585 41.4219 52.4585 30.2263 56.1679 30.2263C59.8773 30.2263 59.8773 41.4219 59.8773 41.4219Z"
              fill="#FFE66B"/>
        <path d="M22.6163 74.3232L16.485 77.54V56.7402H22.6163V74.3232Z" fill="#3498AC"/>
        <path d="M46.9229 13.2484C45.3199 14.23 43.4254 14.2314 41.8258 13.2484V9.58421C41.8258 8.17672 42.9669 7.03564 44.3744 7.03564C45.7819 7.03564 46.9229 8.17672 46.9229 9.58421V13.2484Z"
              fill="#FFE66B"/>
        <path d="M77.6437 39.3079C76.8572 41.5797 76.8749 44.0889 77.6972 46.3501" stroke="black" stroke-width="2.57812"
              stroke-miterlimit="10" stroke-linecap="round" stroke-linejoin="round"/>
        <path d="M59.0238 33.9622H78.9216C80.3538 33.9622 81.519 35.1275 81.519 36.5598C81.519 37.9922 80.3538 39.1575 78.9216 39.1575H59.8777"
              stroke="black" stroke-width="2.57812" stroke-miterlimit="10" stroke-linecap="round"
              stroke-linejoin="round"/>
        <path d="M52.4588 39.1574H16.2726C14.2899 39.1574 12.6768 40.7707 12.6768 42.7538C12.6768 44.7367 14.2899 46.3501 16.2726 46.3501H78.9214C80.3536 46.3501 81.5189 47.5152 81.5189 48.9476C81.5189 50.3799 80.3536 51.5452 78.9214 51.5452H16.2726C13.9117 51.5452 11.6944 50.6191 10.0289 48.9373C8.36395 47.2559 7.45954 45.0292 7.48223 42.6673C7.52898 37.8674 11.5156 33.9622 16.3694 33.9622H53.3127"
              stroke="black" stroke-width="2.57812" stroke-miterlimit="10" stroke-linecap="round"
              stroke-linejoin="round"/>
        <path d="M83.5521 74.323C82.7299 76.5843 82.712 79.0937 83.4987 81.3657" stroke="black" stroke-width="2.57812"
              stroke-miterlimit="10" stroke-linecap="round" stroke-linejoin="round"/>
        <path d="M16.4849 74.3232H11.1166C9.13367 74.3232 7.52063 75.9364 7.52063 77.9195C7.52063 79.9025 9.13367 81.5158 11.1166 81.5158H84.0779C85.5101 81.5158 86.6752 82.681 86.6752 84.1134C86.6752 85.5456 85.5101 86.7109 84.0779 86.7109H11.1166C8.75555 86.7109 6.53819 85.7849 4.87272 84.1031C3.20777 82.4216 2.30353 80.195 2.32622 77.8331C2.37297 73.0331 6.35961 69.128 11.2134 69.128H16.4849"
              stroke="black" stroke-width="2.57812" stroke-miterlimit="10" stroke-linecap="round"
              stroke-linejoin="round"/>
        <path d="M71.026 69.128H84.0774C85.5096 69.128 86.6747 70.2933 86.6747 71.7255C86.6747 73.1579 85.5096 74.3232 84.0774 74.3232H22.6157"
              stroke="black" stroke-width="2.57812" stroke-miterlimit="10" stroke-linecap="round"
              stroke-linejoin="round"/>
        <path d="M22.7466 69.1279H64.2324" stroke="black" stroke-width="2.57812" stroke-miterlimit="10"
              stroke-linecap="round" stroke-linejoin="round"/>
        <path d="M5.45435 63.916C6.28656 61.6148 6.28656 59.0581 5.45435 56.7571" stroke="black" stroke-width="2.57812"
              stroke-miterlimit="10" stroke-linecap="round" stroke-linejoin="round"/>
        <path d="M22.747 63.9327H77.8845C79.8672 63.9327 81.4804 62.3194 81.4804 60.3364C81.4804 58.3534 79.8672 56.74 77.8845 56.74H4.92318C3.49095 56.74 2.32581 55.5749 2.32581 54.1425C2.32581 52.7103 3.49095 51.5449 4.92318 51.5449H77.8846C80.2455 51.5449 82.4627 52.4712 84.1282 54.1528C85.7931 55.8344 86.6974 58.0611 86.6747 60.4228C86.6281 65.2228 82.6414 69.1279 77.7875 69.1279"
              stroke="black" stroke-width="2.57812" stroke-miterlimit="10" stroke-linecap="round"
              stroke-linejoin="round"/>
        <path d="M16.4849 69.1279H4.92318C3.49095 69.1279 2.32581 67.9626 2.32581 66.5304C2.32581 65.098 3.49095 63.9327 4.92318 63.9327H16.4849"
              stroke="black" stroke-width="2.57812" stroke-miterlimit="10" stroke-linecap="round"
              stroke-linejoin="round"/>
        <path d="M20.4379 33.9622L24.7681 19.382" stroke="black" stroke-width="2.57812" stroke-miterlimit="10"
              stroke-linecap="round" stroke-linejoin="round"/>
        <path d="M64.2323 19.382L68.5625 33.9622" stroke="black" stroke-width="2.57812" stroke-miterlimit="10"
              stroke-linecap="round" stroke-linejoin="round"/>
        <path d="M20.8138 6.91721L5.85101 10.8473C4.01727 11.3289 4.01727 13.9319 5.85101 14.4135L40.0557 23.3978C42.969 24.163 46.0306 24.163 48.9438 23.3978L83.1485 14.4135C84.9822 13.9319 84.9822 11.3289 83.1485 10.8473L48.9438 1.86306C46.0306 1.09787 42.969 1.09787 40.0557 1.86306L27.3369 5.20379"
              stroke="black" stroke-width="2.57812" stroke-miterlimit="10" stroke-linecap="round"
              stroke-linejoin="round"/>
        <path d="M46.9771 13.1887L56.1679 21.5224V30.2263" stroke="black" stroke-width="2.57812" stroke-miterlimit="10"
              stroke-linecap="round" stroke-linejoin="round"/>
        <path d="M59.8773 41.4219H52.4585C52.4585 41.4219 52.4585 30.2263 56.1679 30.2263C59.8773 30.2263 59.8773 41.4219 59.8773 41.4219Z"
              stroke="black" stroke-width="2.57812" stroke-miterlimit="10" stroke-linecap="round"
              stroke-linejoin="round"/>
        <path d="M22.6163 74.3232L16.485 77.54V56.7402H22.6163V74.3232Z" stroke="black" stroke-width="2.57812"
              stroke-miterlimit="10" stroke-linecap="round" stroke-linejoin="round"/>
        <path d="M46.9229 13.2484C45.3199 14.23 43.4254 14.2314 41.8258 13.2484V9.58421C41.8258 8.17672 42.9669 7.03564 44.3744 7.03564C45.7819 7.03564 46.9229 8.17672 46.9229 9.58421V13.2484Z"
              stroke="black" stroke-width="2.57812" stroke-miterlimit="10" stroke-linecap="round"
              stroke-linejoin="round"/>
    </g>
</svg>
